<?xml version="1.0" encoding="UTF-8" standalone="no"?>
<!DOCTYPE svg PUBLIC "-//W3C//DTD SVG 1.1//EN" "http://www.w3.org/Graphics/SVG/1.1/DTD/svg11.dtd">
<svg width="100%" height="100%" viewBox="0 0 1080 1080" version="1.1" xmlns="http://www.w3.org/2000/svg" xmlns:xlink="http://www.w3.org/1999/xlink" xml:space="preserve" xmlns:serif="http://www.serif.com/" style="fill-rule:evenodd;clip-rule:evenodd;stroke-linecap:round;stroke-linejoin:round;stroke-miterlimit:1.5;">
    <rect x="0" y="0" width="1080" height="1080" style="fill:rgb(110,6,138);"/>
    <g>
        <path d="M145.93,339.307C145.93,332.186 144.725,281.602 147.44,278.887C153.213,273.115 155.917,258.913 159.524,251.698C179.457,211.832 220.91,178.873 260.727,165.601C285.814,157.238 321.954,165.835 345.314,158.048C404.351,138.37 501.556,168.434 525.062,215.447C532.8,230.923 538.225,403.179 528.083,413.321C521.223,420.182 517.183,429.079 512.978,437.489C499.419,464.608 469.862,494.932 445.006,511.502C421.577,527.122 340.816,512.948 321.146,552.286C303.476,587.625 272.874,661.104 310.573,698.803C338.361,726.591 374.839,689.968 398.181,682.188C420.361,674.795 440.494,651.959 457.09,635.363C479.301,613.152 569.978,546.377 597.566,537.181C610.817,532.763 697.236,511.459 704.81,526.607C719.258,555.504 654.483,587.348 636.838,599.111C587.129,632.25 521.228,657.323 481.258,697.293C463.23,715.32 418.004,725.618 407.244,747.139C405.246,751.134 330.977,805.306 343.804,818.132C367.179,841.506 398.73,827.378 425.37,836.258C452.993,845.465 486.058,836.702 514.489,843.81C567.068,856.955 626.068,845.758 674.601,861.936C700.894,870.7 757.677,877.75 757.677,910.271C757.677,911.704 758.59,918.422 757.677,919.334C738.089,938.923 691.294,932.929 661.006,932.929C603.025,932.929 515.974,924.237 460.111,910.271C447.22,907.049 433.99,895.38 417.818,892.146C409.856,890.553 403.264,891.826 395.16,889.125C382.472,884.895 299.279,876.251 289.426,886.104C277.821,897.708 259.985,897.419 250.153,907.251C231.553,925.851 210.198,938.141 191.244,957.097C185.565,962.776 187.199,976.246 182.181,981.264C164.16,999.287 155.41,1039.34 142.909,1064.34C139.6,1070.96 127.686,1076.54 123.272,1080.96C119.09,1085.14 45.675,1106.07 38.685,1099.08C26.816,1087.21 59.249,1035.93 68.895,1031.11C118.457,1006.33 174.629,930.772 174.629,869.488C174.629,864.181 176.9,852.883 174.629,848.341C137.857,774.8 129.194,779.554 55.3,742.607C36.987,733.451 9.509,734.392 -11.161,727.502C-27.016,722.217 -77.458,709.047 -64.028,682.188C-55.301,664.734 -19.371,670.104 3.944,670.104C35.032,670.104 161.978,732.6 185.202,709.376C188.432,706.146 199.758,708.416 203.328,704.845C211.899,696.275 216.868,692.87 222.964,680.677C228.656,669.293 219.635,598.803 213.902,593.069C207.356,586.523 203.266,570.35 195.776,562.859C183.218,550.301 180.169,521.574 173.118,514.523C168.855,510.26 168.704,499.653 165.566,493.377C143.686,449.617 148.951,388.213 148.951,333.265" style="fill:none;stroke:rgb(219,38,117);stroke-width:26.7px;"/>
        <path d="M238.069,325.712C245.053,322.919 253.348,316.649 260.727,316.649" style="fill:none;stroke:rgb(219,38,117);stroke-width:78.4px;"/>
        <path d="M378.545,307.586C378.545,326.566 284.521,380.848 269.79,371.027C256.089,361.893 266.668,308.124 281.874,303.055C282.827,302.737 286.685,300.314 287.916,301.545C301.028,314.657 289.975,343.873 269.79,328.733C252.699,315.915 253.174,293.332 253.174,274.356C253.174,273.013 253.678,272.174 251.664,272.845C240.98,276.407 216.16,312.124 204.839,321.181C199.887,325.142 197.101,330.429 192.755,334.775C191.471,336.059 189.734,341.122 189.734,339.307C189.734,330.993 190.177,322.955 188.223,315.139C187.677,312.954 185.202,306.845 185.202,309.097C185.202,364.001 174.667,430.049 191.244,479.782C199.019,503.108 216.839,523.419 227.496,544.733C237.732,565.205 239.519,591.436 250.153,612.705C252.527,617.452 256.195,630.519 256.195,635.363C256.195,639.101 256.095,639.793 257.706,641.404C259.13,642.829 257.706,649.46 257.706,647.446C257.706,588.123 268.463,587.08 292.447,546.244C296.745,538.925 307.358,535.207 312.083,528.118C316.262,521.849 327.317,505.396 333.23,502.44C351.538,493.285 379.779,474.016 393.65,460.146C398.698,455.098 399.159,445.129 401.202,438.999C401.582,437.859 405.441,431.154 404.223,429.936C400.502,426.215 374.446,447.846 370.992,449.572C343.753,463.192 324.57,474.848 304.531,494.887C300.19,499.228 295.123,508.481 287.916,508.481L287.916,487.335C287.916,471.725 288.659,457.171 292.447,442.02C293.07,439.529 293.282,436.944 293.957,434.468C295.791,427.743 296.079,428.407 298.489,422.384C299.442,420 301.815,413.016 299.999,414.831C290.735,424.095 283.241,442.078 277.342,454.104C276.587,455.643 271.349,469.988 269.79,469.209C259.48,464.054 257.843,401.374 247.132,390.663C242.202,385.734 227.718,410.788 225.985,414.831C224.475,418.356 221.454,429.239 221.454,425.405C221.454,407.6 232.307,392.141 236.559,375.558C240.149,361.559 235.586,255.257 232.027,251.698C222.165,241.836 203.992,263.541 198.797,271.335C198.619,271.601 189.734,285.829 189.734,283.419C189.734,272.935 199.441,263.138 204.839,257.74C255.976,206.603 263.325,209.405 339.272,209.405C346.344,209.405 395.657,209.901 398.181,212.426C416.137,230.382 310.736,256.624 286.405,272.845C267.488,285.457 268.279,291.725 268.279,313.628C268.279,314.635 267.272,316.649 268.279,316.649C272.161,316.649 273.914,301.659 275.832,298.524C282.064,288.338 291.307,286.069 296.978,280.398C301.172,276.204 318.564,294.934 321.033,296.786C323.108,298.342 325.262,299.808 327.188,301.545C341.521,314.466 352.928,333.341 364.95,348.37C371.373,356.398 371.815,355.399 378.545,363.475C379.986,365.204 381.566,371.768 381.566,369.517C381.566,349.919 384.297,328.183 380.055,309.097C372.562,275.377 330.463,237.85 364.95,203.363C368.149,200.164 367.888,194.342 374.013,191.279C382.143,187.214 413.476,189.959 417.818,194.3C424.461,200.943 448.557,193.32 457.09,201.852C487.793,232.556 521.243,330.685 490.321,377.069C476.856,397.267 446.871,408.745 422.349,411.81C410.1,413.341 338.059,422.978 334.741,416.342C330.67,408.2 328.893,393.147 327.188,384.621C321.278,355.07 363.742,336.646 378.545,310.607C390.63,289.349 387.001,256.836 399.692,244.146C400.404,243.434 402.108,243.34 402.713,244.146C419.501,266.531 423,299.826 434.433,322.691C440.218,334.261 434.303,351.131 440.475,363.475C445.616,373.756 449.653,381.83 455.58,393.684C457.45,397.426 462.296,395.033 464.643,399.726C467.028,404.496 462.337,421.589 466.153,425.405C467.253,426.505 487.527,393.633 487.527,397.121C487.527,403.812 478.012,409.239 475.216,414.831C450.658,463.947 416.84,446.018 393.65,469.209C390.56,472.299 402.637,467.717 402.713,467.698C411.224,465.57 422.467,465.781 432.922,463.167C433.293,463.074 443.273,461.434 441.985,460.146C429.4,447.56 315.885,447.291 296.978,458.635C285.241,465.678 271.074,478.723 265.258,490.356C257.089,506.694 265.313,541.491 260.727,559.838C243.626,628.24 266.227,697.406 242.601,768.286C239.04,778.968 240.404,802.202 233.538,809.069C229.96,812.647 221.04,787.095 219.944,784.901C219.684,784.383 182.847,766.353 177.65,763.754C160.902,755.381 143.778,743.042 124.783,733.544C109.09,725.698 84.806,725.288 73.426,713.908C68.14,708.622 44.699,716.416 37.174,713.908C15.563,706.704 4.162,692.761 -21.735,692.761" style="fill:none;stroke:rgb(219,38,117);stroke-width:78.4px;"/>
        <path d="M179.16,730.523C183.231,726.453 201.662,729.013 207.86,729.013L221.454,729.013C221.454,731.484 219.048,733.544 216.923,733.544" style="fill:none;stroke:rgb(219,38,117);stroke-width:78.4px;"/>
        <path d="M201.818,801.516C196.083,800.083 168.144,786.854 161.034,793.964C153.811,801.188 190.084,823.013 191.244,824.174C193.975,826.905 191.244,842.387 191.244,846.831C191.244,867.845 195.953,907.563 188.223,926.887C169.826,972.88 155.071,979.674 124.783,1009.96C117.063,1017.68 114.181,1031.14 106.657,1038.66C98.007,1047.31 84.505,1048.73 77.958,1055.28C69.555,1063.68 43.653,1126.27 41.706,1126.27" style="fill:none;stroke:rgb(219,38,117);stroke-width:78.4px;"/>
        <path d="M235.048,851.362C231.05,855.361 219.944,866.561 219.944,870.999C219.944,873.71 224.924,868.835 227.496,867.978C235.589,865.28 245.21,860.89 253.174,855.894C272.798,843.584 278.548,827.207 283.384,803.027C287.387,783.012 286.405,761.766 286.405,741.097L286.405,710.887C294.956,719.438 294.56,737.167 303.02,745.628C315.087,757.695 385.293,704.492 399.692,697.293C426.793,683.742 453.41,676.64 478.237,658.02C504.061,638.652 520.646,605.095 550.741,590.048C571.787,579.525 596.568,580.728 617.202,570.411C632.289,562.868 642.099,553.796 659.496,553.796" style="fill:none;stroke:rgb(219,38,117);stroke-width:78.4px;"/>
        <path d="M352.867,748.649C337.844,763.671 321.49,773.984 307.552,787.922C305.635,789.839 302.106,794.262 304.531,795.474C317.177,801.797 372.635,716.665 378.545,704.845C387.875,686.184 424.567,676.146 443.496,676.146L455.58,676.146C455.58,676.146 450.103,678.601 448.027,680.677C439.641,689.064 427.018,702.977 414.797,707.866C371.094,725.347 333.917,762.381 315.104,800.006C312.627,804.96 298.342,828.559 301.51,831.726C318.107,848.323 422.44,837.798 454.069,848.341C471.605,854.187 498.553,858.084 509.957,869.488C516.806,876.336 538.657,874.02 538.657,874.02L534.125,874.02C516.718,874.02 500.074,875.53 482.769,875.53L473.706,875.53C473.706,875.53 483.28,876.777 487.715,878.551C510.789,887.781 607.923,886.104 639.859,886.104C654.19,886.104 668.203,898.188 680.643,898.188L704.81,898.188C705.804,898.188 713.189,898.188 709.342,898.188" style="fill:none;stroke:rgb(219,38,117);stroke-width:78.4px;"/>
        <path d="M515.999,96.118C528.003,108.122 538.921,114.508 550.741,126.328C576.134,151.722 591.407,198.482 603.608,235.083C608.839,250.775 605.614,270.298 609.65,286.44C615.692,310.608 610.719,376.441 600.587,396.705C599.946,397.987 596.731,425.743 599.076,426.915C605.009,429.881 620.892,426.915 627.775,426.915C645.287,426.915 762.61,421.274 765.23,423.894C772.498,431.162 781.013,438.167 787.887,445.041C791.958,449.111 811.572,493.86 801.482,503.95C795.19,510.242 793.664,521.096 789.398,529.628C770.686,567.053 745.589,637.631 707.831,656.509C698.992,660.929 690.121,678.959 680.643,683.698C665.474,691.282 652.103,701.771 633.817,707.866C619.735,712.56 603.166,711.863 590.013,718.439C581.711,722.591 573.984,732.958 568.866,738.076C566.432,740.51 550.741,745.39 550.741,748.649C550.741,750.16 553.761,748.649 555.272,748.649C568.129,748.649 580.282,742.774 593.034,739.586C617.913,733.367 650.096,738.076 676.111,738.076C733.929,738.076 792.425,772.828 822.629,818.132C827.548,825.511 838.458,831.665 842.265,839.279C846.052,846.852 842.421,869.644 848.307,875.53C852.272,879.496 851.328,888.782 851.328,896.677C851.328,942.121 819.834,971.332 784.866,988.817C777.52,992.49 730.659,999.22 728.978,1000.9C715.427,1014.45 556.801,1018.6 528.083,1014.5C508.731,1011.73 493.514,1007.88 473.706,1003.92C433.087,995.797 393.636,989.325 354.377,1002.41C352.092,1003.17 344.013,1000.69 342.293,1002.41C333.224,1011.48 283.844,1017.06 260.727,1040.17C256.815,1044.09 237.331,1124.76 225.985,1124.76" style="fill:none;stroke:rgb(219,38,117);stroke-width:78.4px;"/>
        <path d="M490.321,77.992C482.885,77.992 469.233,71.225 464.643,68.929C445.793,59.504 386.99,74.765 364.95,67.419C349.679,62.328 325.907,72.82 312.083,65.908C299.556,59.645 273.616,64.398 259.216,64.398C213.169,64.398 157.983,78.023 126.293,109.712C116.797,119.208 102.544,121.378 93.062,130.859C57.99,165.932 38.643,205.04 26.601,253.209C13.325,306.313 46.98,454.079 67.384,494.887C73.554,507.227 98.462,577.096 93.062,582.495C59.687,615.872 -48.074,592.479 -98.77,605.153C-100.002,605.461 -111.198,605.497 -112.364,606.663C-112.626,606.925 -101.791,612.334 -101.791,618.747" style="fill:none;stroke:rgb(219,38,117);stroke-width:78.4px;"/>
        <path d="M-50.434,806.048C-37.514,806.048 29.73,798.549 41.706,804.537C48.911,808.14 46.079,814.952 50.769,819.642C67.598,836.471 78.826,885.878 64.363,914.803C60.794,921.941 65.251,930.53 59.832,935.95C57.232,938.55 58.772,953.173 56.811,957.097C50.765,969.188 35.587,982.852 26.601,991.838C22.352,996.086 -34.624,1016.01 -41.371,1016.01C-43.898,1016.01 -48.923,1014.15 -48.923,1017.52" style="fill:none;stroke:rgb(219,38,117);stroke-width:78.4px;"/>
        <path d="M-41.371,108.202C-34.099,104.566 -31.305,96.625 -24.756,90.076C-18.654,83.975 -2.827,76.429 0.923,68.929C10.791,49.193 46.003,5.489 70.405,-2.064C109.591,-14.193 148.072,-25.754 188.223,-33.784C235.326,-43.205 311.395,-30.763 358.908,-30.763C372.656,-30.763 421.22,-35.104 429.901,-30.763C438.518,-26.455 456.31,-23.028 467.664,-20.19C541.953,-1.617 556.186,-34.377 618.713,28.146C626.045,35.478 630.808,49.316 635.328,58.356C641.909,71.517 652.707,82.54 659.496,96.118C670.607,118.341 673.469,142.571 680.643,164.09C685.385,178.319 683.112,194.708 689.705,207.894C691.719,211.922 687.692,218.971 689.705,222.999C703.956,251.501 692.064,297.861 712.363,318.16C723.907,329.705 755.484,312.118 769.761,312.118C784.115,312.118 801.341,310.195 815.076,313.628C827.105,316.636 895.296,359.435 898.153,368.006C905.183,389.095 917.999,424.314 928.363,445.041C929.926,448.168 923.177,442.674 920.81,445.041C919.898,445.953 920.81,452.671 920.81,454.104C920.81,470.411 925.342,482.033 925.342,499.419C925.342,505.847 926.751,552.386 923.831,555.307C917.226,561.912 910.687,582.657 907.216,593.069C897.399,622.52 853.785,662.372 866.433,700.314C874.571,724.728 918.591,736.658 929.873,759.223C939,777.476 946.29,792.056 955.551,810.579C961.862,823.2 949.41,843.512 954.041,857.404C976.969,926.189 966.83,1004.73 922.321,1049.24C913.792,1057.77 902.684,1084.9 902.684,1099.08L902.684,1111.17L902.684,1102.1C902.684,1090.07 904.608,1079.1 907.216,1067.36" style="fill:none;stroke:rgb(219,38,117);stroke-width:78.4px;"/>
        <path d="M721.426,-14.148C726.339,5.506 739.54,35.686 753.146,49.293C761.845,57.992 769.351,90.765 775.803,103.671C789.763,131.59 782.688,164.933 802.992,185.237C830.426,212.671 921.23,196.775 961.593,216.957C1040.09,256.207 1074.93,499.321 1029.57,590.048C1016.87,615.44 1036.28,771.979 1050.71,786.411C1052.63,788.329 1053.73,778.859 1053.73,778.859L1053.73,787.922C1053.73,802.058 1058.61,815.328 1061.29,828.705C1066.14,852.977 1070.42,893.8 1080.92,914.803C1086.64,926.244 1079.88,1045.28 1076.39,1052.26C1072.84,1059.37 1061.29,1107.91 1061.29,1088.51" style="fill:none;stroke:rgb(219,38,117);stroke-width:78.4px;"/>
        <path d="M837.733,-18.679C847.081,-12.447 852.642,21.055 860.391,32.678C867.229,42.935 901.519,68.347 908.726,71.95C944.172,89.674 973.918,98.212 1008.42,109.712C1018.81,113.174 1042.77,109.326 1050.71,117.265C1055.94,122.493 1065.66,127.677 1070.35,132.37C1077.3,139.32 1080.08,149.651 1085.45,155.027C1089.77,159.34 1106.96,235.811 1112.64,247.167C1120.51,262.904 1127.9,274.656 1135.3,289.461C1137.01,292.87 1142.96,304.566 1142.85,304.566" style="fill:none;stroke:rgb(219,38,117);stroke-width:78.4px;"/>
        <path d="M996.335,-50.399C996.335,21.882 1080.05,8.831 1124.73,31.167C1144.41,41.011 1160.25,53.039 1177.59,64.398C1193.18,74.608 1217.69,114.244 1238.01,114.244" style="fill:none;stroke:rgb(219,38,117);stroke-width:78.4px;"/>
    </g>
    <path d="M1194.21,55.335C1181.86,55.335 1090.53,52.675 1089.99,52.314C1077.75,44.156 1060.88,33.503 1047.69,23.615C1044.43,21.171 1045.52,15.399 1043.16,13.041C1029.99,-0.133 1009.99,-2.064 990.293,-2.064C985.743,-2.064 980.448,-5.327 975.188,-3.574C940.452,8.004 916.14,28.215 883.048,44.761C872.463,50.054 835.72,57.349 828.671,64.398C822.882,70.187 830.311,186.877 837.733,194.3C855.172,211.739 887.707,224.636 902.684,239.615C918.838,255.768 927.729,290.579 935.915,315.139C938.722,323.558 936.4,334.234 940.447,342.328C944.408,350.25 951.162,356.348 954.041,364.985C955.945,370.697 958.153,381.181 961.594,384.621C970.371,393.399 963.966,417.204 972.167,425.405C976.834,430.072 961.85,501.671 958.573,511.502C951.896,531.533 955.574,567.368 940.447,582.495C931.409,591.533 921.804,612.877 908.726,617.237C859.826,633.537 788.449,615.163 753.146,650.467C744.67,658.944 745.594,708.058 745.594,722.971C745.594,754.901 753.251,798.074 745.594,828.705C742.025,842.979 724.341,860.531 713.873,870.999C710.738,874.134 700.82,885.213 697.258,886.104C686.969,888.676 658.113,890.508 650.433,898.188C635.792,912.827 616.884,919.732 593.034,926.887C560.146,936.754 517.042,928.05 488.811,937.46C391.079,970.037 357.398,1032.62 357.398,1135.33" style="fill:none;stroke:rgb(236,152,6);stroke-width:78.4px;"/>
    <path d="M1106.6,260.761C1106.6,227.815 1087.1,213.248 1061.29,200.342C1053.29,196.345 1045.36,187.482 1038.63,185.237C1035.66,184.249 1011.19,197.568 1008.42,200.342C1003.04,205.724 1039.25,267.768 1043.16,283.419C1050.69,313.559 1057.66,339.01 1067.33,368.006C1072.28,382.855 1077.41,532.624 1071.86,549.265C1057.29,592.968 1049.67,648.493 1020.5,677.656C1012.31,685.846 1007.12,702.691 994.824,710.887C992.142,712.675 987.272,716.929 987.272,716.929C987.272,716.929 1006.91,720.53 1006.91,713.908L993.314,713.908C956.369,713.908 945.408,733.544 902.684,733.544L899.663,733.544C893.205,740.002 893.1,751.203 889.09,759.223C879.959,777.484 863.143,797.79 855.859,819.642C845.952,849.365 840.214,922.184 813.566,943.502C772.637,976.245 712.093,1005.79 661.006,1016.01C651.447,1017.92 559.24,1031.67 556.783,1034.13C553.207,1037.71 510.434,1070.86 519.02,1079.45C519.663,1080.09 544.809,1073.89 547.72,1073.4" style="fill:none;stroke:rgb(236,152,6);stroke-width:78.4px;"/>
    <path d="M1150.4,733.544C1150.4,718.831 1106.95,754.343 1102.07,759.223C1080.37,780.919 1063.27,817.654 1047.69,833.237C1042.97,837.956 1035.74,843.548 1032.59,849.852C1025.48,864.069 1016.59,883.497 1003.89,893.656C973.754,917.763 969.192,961.582 941.957,988.817C935.968,994.806 919.977,994.181 914.768,999.39C908.526,1005.63 852.675,1045.26 845.286,1047.73C806.785,1060.56 773.393,1056.61 760.699,1100.59C755.74,1117.78 763.719,1129.6 763.719,1142.89" style="fill:none;stroke:rgb(236,152,6);stroke-width:78.4px;"/>
    <path d="M1145.87,966.16C1083.14,966.16 1029.41,1035.95 1005.4,1083.98C999.713,1095.35 1005.25,1113.62 996.335,1124.76C976.587,1149.45 936.083,1174.5 910.237,1144.4" style="fill:none;stroke:rgb(236,152,6);stroke-width:78.4px;"/>
    <path d="M1118.68,1047.73C1118.68,1050.48 1081.98,1064.8 1070.35,1076.42C1065.17,1081.6 1045.69,1129.29 1056.75,1129.29" style="fill:none;stroke:rgb(236,152,6);stroke-width:78.4px;"/>
    <path d="M-62.518,97.629C-49.691,84.802 -28.453,83.2 -15.693,70.44C19.065,35.683 10.239,-7.414 67.384,-21.7C118.268,-34.421 221.369,-3.532 263.748,-24.721C300.327,-43.011 359.799,-78.688 402.713,-44.357" style="fill:none;stroke:rgb(236,152,6);stroke-width:78.4px;"/>
    <path d="M-113.874,297.013C-87.517,279.441 -53.241,269.61 -30.798,247.167C25.807,190.563 49.379,156.497 130.825,129.349C181.769,112.368 251.261,124.448 299.999,108.202C320.776,101.277 344.314,91.729 366.461,88.566C380.522,86.557 402.797,84.482 414.797,76.482C437.373,61.431 463.295,59.03 485.79,47.782C506.331,37.512 520.768,28.027 541.678,17.573C547.358,14.733 563.972,10.383 567.356,6.999C578.048,-3.692 591.421,-7.299 605.118,-14.148C618.482,-20.829 633.4,-34.223 648.922,-42.847C703.684,-73.27 785.165,-96.394 846.796,-100.245C906.461,-103.974 964.439,-83.884 1022.01,-71.546" style="fill:none;stroke:rgb(236,152,6);stroke-width:78.4px;"/>
    <path d="M-47.413,238.104C-37.818,228.509 -30.264,220.955 -20.224,210.915C-10.402,201.094 21.26,195.11 32.643,183.726C42.294,174.075 53.862,160.997 62.853,152.006C75.071,139.788 105.979,142.162 121.762,136.901C156.949,125.172 201.546,114.067 242.601,108.202C247.64,107.482 276.77,110.284 280.363,106.692C287.522,99.533 306.768,95.876 319.636,91.587C340.016,84.793 396.535,90.865 423.86,84.034C442.843,79.288 457.133,59.845 472.195,52.314C482.595,47.114 515.906,31.261 522.041,25.125C528.749,18.417 560.623,13.502 570.377,6.999C584.861,-2.657 602.106,-18.179 617.202,-23.211C624.119,-25.516 629.221,-19.488 633.817,-15.658" style="fill:none;stroke:rgb(180,59,0);stroke-width:29.7px;"/>
    <path d="M-48.923,74.971C-38.085,67.746 -16.371,65.076 -8.14,56.845C4.866,43.839 4.117,16.731 32.643,2.468C69.652,-16.037 127.388,-9.616 170.097,-9.616L265.258,-9.616C275.092,-9.616 315.75,-22.345 304.531,-11.127" style="fill:none;stroke:rgb(180,59,0);stroke-width:29.7px;"/>
    <path d="M-0.588,2.468C-0.588,-2.123 0.923,-16.281 0.923,-6.595C0.923,7.877 3.295,7.16 17.538,16.062" style="fill:none;stroke:rgb(180,59,0);stroke-width:29.7px;"/>
    <path d="M1150.4,56.845C1121.2,56.845 1100.29,41.471 1085.45,26.636C1080.11,21.294 1036.08,17.573 1025.03,17.573C935.337,17.573 876.175,5.646 833.202,91.587C828.722,100.545 818.533,163.015 827.16,171.643C835.003,179.486 844.131,202.563 849.817,213.936C858.489,231.279 892.437,235.408 904.195,247.167C908.947,251.919 910.69,265.746 916.279,271.335C940.514,295.571 944.618,331.037 961.594,364.985C967.117,376.031 964.07,391.086 969.146,401.237C976.678,416.299 962.84,441.492 970.656,457.125C976.216,468.244 976.534,516.362 970.656,528.118C961.509,546.413 953.199,563.032 944.978,579.474C942.862,583.707 935.874,585.578 932.894,590.048C900.678,638.373 790.152,617.993 786.377,621.768C782.544,625.601 776.473,632.513 774.293,636.873C769.443,646.574 763.664,658.075 754.657,667.083C750.882,670.858 750.816,683.828 748.615,688.23C737.243,710.971 755.861,761.345 745.594,781.88C740.008,793.052 746.537,807.749 742.573,819.642C729.863,857.77 698.353,886.311 665.538,902.719C638.803,916.086 594.043,909.012 573.398,919.334C552.901,929.583 513.826,938.603 490.579,944.414C473.067,948.792 459.123,948.693 446.517,957.097C413.581,979.054 400.652,1018.34 380.055,1049.24C374.3,1057.87 366.461,1072.69 366.461,1082.47C366.461,1085.65 360.256,1091.53 363.44,1091.53C378.986,1091.53 378.463,1092.21 393.65,1094.55" style="fill:none;stroke:rgb(180,59,0);stroke-width:29.7px;"/>
    <path d="M1138.32,247.167C1132.64,235.8 1117.98,225.316 1109.62,216.957C1105.05,212.383 1048.28,201.26 1041.65,207.894C1040.02,209.527 1039.81,214.266 1038.63,215.447C1037.29,216.785 1038.63,335.348 1038.63,346.859C1038.63,366.613 1046.11,432.887 1055.24,442.02C1058.33,445.102 1058.19,530.835 1061.29,543.223C1064.16,554.724 1068.22,588.261 1062.8,599.111C1052.03,620.649 1037.22,639.692 1026.55,661.041C1021.8,670.524 1020.49,688.242 1012.95,695.782C979.313,729.42 921.868,730.975 889.09,763.754C866.392,786.453 848.537,861.476 830.181,898.188C826.374,905.802 827.402,922.114 821.118,928.397C810.83,938.685 798.554,955.4 792.419,967.67C785.705,981.098 756.71,986.763 747.104,996.369C719.395,1024.08 624.916,1004.6 605.118,1014.5C594.421,1019.84 582.626,1025.74 574.908,1029.6C566.76,1033.67 528.432,1072.71 525.062,1079.45C521.446,1086.68 508.269,1104.46 515.999,1100.59" style="fill:none;stroke:rgb(180,59,0);stroke-width:29.7px;"/>
    <path d="M765.23,1108.15C768.266,1102.07 772.703,1085.57 775.803,1082.47C790.425,1067.84 814.545,1068.38 834.713,1058.3C855.056,1048.13 877.162,1030.95 892.111,1016.01C897.438,1010.68 910.565,1009.31 914.768,1000.9C922.435,985.568 954.07,972.145 958.573,963.139C964.351,951.581 971.432,924.601 981.23,914.803C993.978,902.054 1016.69,890.314 1026.55,875.53C1050.89,839.005 1061.9,779.306 1105.09,757.712C1116.12,752.195 1133.51,749.75 1145.87,745.628C1179.75,734.337 1216.76,726.643 1253.12,730.523C1286.29,734.063 1316.88,745.12 1348.28,756.202" style="fill:none;stroke:rgb(180,59,0);stroke-width:29.7px;"/>
    <path d="M1254.63,996.369C1224.63,996.369 1089.11,990.008 1064.31,1002.41C1045.27,1011.93 1017.48,1046.66 1017.48,1067.36C1017.48,1082.27 1015.66,1106.63 1015.97,1106.63C1023.81,1106.63 1047.86,1054.66 1058.27,1047.73C1069.05,1040.54 1076.09,1020.69 1085.45,1016.01C1105.33,1006.07 1124.02,1011.21 1145.87,1003.92" style="fill:none;stroke:rgb(180,59,0);stroke-width:29.7px;"/>
</svg>
